<svg xmlns="http://www.w3.org/2000/svg" width="565.7008666992188" height="70.51870727539062" viewBox="-575.0692749023438 -36.90364456176758 565.7008666992188 70.51870727539062"><title>Neo4j Graph Visualization</title><desc>Created using Neo4j (http://www.neo4j.com/)</desc><g class="layer relationships"><g class="relationship" transform="translate(-38.3683866319845 -3.61437279927452) rotate(538.4355665233338)"><path class="outline" fill="#A5ABB6" stroke="none" d="M 21.40063509461097,12.933012701892217 L 21.90063509461097,12.06698729810778 A 98.651262686759 98.651262686759 0 0 0 38.84782606109244,19.81890424071223 L 38.51961495162386,20.76350863813022 A 99.651262686759 99.651262686759 0 0 1 21.40063509461097,12.933012701892217 Z M 99.54413274090001,22.175528275148608 L 99.25996307220325,21.216754266639427 A 98.651262686759 98.651262686759 0 0 0 116.54756140306107,14.256981146030501 L 115.16933388531575,11.592306886514036 L 122.99483926155703,11.485229314544199 L 118.38519809338814,17.809880158719118 L 117.00697057564282,15.145205899202654 A 99.651262686759 99.651262686759 0 0 1 99.54413274090001,22.175528275148608"/><text text-anchor="middle" pointer-events="none" font-size="8px" fill="#000000" x="68.93266262757406" y="28.757218585582322" transform="rotate(180 68.93266262757406 25.757218585582322)" font-family="sans-serif">PublicTransport</text></g><g class="relationship" transform="translate(-183.51472196160938 0.34976268982363684) rotate(180.07769387155707)"><path class="outline" fill="#A5ABB6" stroke="none" d="M 25 0.5 L 72.66962697488422 0.5 L 72.66962697488422 -0.5 L 25 -0.5 Z M 92.00556447488422 0.5 L 139.67519144976845 0.5 L 139.67519144976845 3.5 L 146.67519144976845 0 L 139.67519144976845 -3.5 L 139.67519144976845 -0.5 L 92.00556447488422 -0.5 Z"/><text text-anchor="middle" pointer-events="none" font-size="8px" fill="#000000" x="82.33759572488422" y="3" transform="rotate(180 82.33759572488422 0)" font-family="sans-serif">trek</text></g><g class="relationship" transform="translate(-355.1897555754964 0.11696882089020882) rotate(180.05788143632844)"><path class="outline" fill="#A5ABB6" stroke="none" d="M 25 0.5 L 82.27185207198251 0.5 L 82.27185207198251 -0.5 L 25 -0.5 Z M 101.60778957198251 0.5 L 158.87964164396502 0.5 L 158.87964164396502 3.5 L 165.87964164396502 0 L 158.87964164396502 -3.5 L 158.87964164396502 -0.5 L 101.60778957198251 -0.5 Z"/><text text-anchor="middle" pointer-events="none" font-size="8px" fill="#000000" x="91.93982082198251" y="3" transform="rotate(180 91.93982082198251 0)" font-family="sans-serif">trek</text></g><g class="relationship" transform="translate(-38.3683866319845 -3.61437279927452) rotate(538.4355665233338)"><path class="outline" fill="#A5ABB6" stroke="none" d="M 25 0.5 L 58.09436967043044 0.5 L 58.09436967043044 -0.5 L 25 -0.5 Z M 80.10608842043044 0.5 L 113.20045809086088 0.5 L 113.20045809086088 3.5 L 120.20045809086088 0 L 113.20045809086088 -3.5 L 113.20045809086088 -0.5 L 80.10608842043044 -0.5 Z"/><text text-anchor="middle" pointer-events="none" font-size="8px" fill="#000000" x="69.10022904543044" y="3" transform="rotate(180 69.10022904543044 0)" font-family="sans-serif">road</text></g><g class="relationship" transform="translate(-38.3683866319845 -3.61437279927452) rotate(538.4355665233338)"><path class="outline" fill="#A5ABB6" stroke="none" d="M 21.40063509461097,-12.933012701892217 L 21.90063509461097,-12.06698729810778 A 98.651262686759 98.651262686759 0 0 1 59.35365892391234,-24.566714708323204 L 59.23330965325195,-25.5594463201154 A 99.651262686759 99.651262686759 0 0 0 21.40063509461097,-12.933012701892217 Z M 78.63078266088523,-26.008275967403918 L 78.55647837187517,-25.01104035199765 A 98.651262686759 98.651262686759 0 0 1 116.54756140306107,-14.256981146030501 L 115.16933388531575,-11.592306886514036 L 122.99483926155703,-11.485229314544199 L 118.38519809338814,-17.809880158719118 L 117.00697057564282,-15.145205899202654 A 99.651262686759 99.651262686759 0 0 0 78.63078266088523,-26.008275967403918"/><text text-anchor="middle" pointer-events="none" font-size="8px" fill="#000000" x="68.93266262757405" y="-22.757218585582322" transform="rotate(180 68.93266262757405 -25.757218585582322)" font-family="sans-serif">trek</text></g></g><g class="layer nodes"><g class="node" aria-label="graph-node222" transform="translate(-38.3683866319845,-3.61437279927452)"><circle class="outline" cx="0" cy="0" r="25" fill="#57C7E3" stroke="#23b3d7" stroke-width="2px"/><text class="caption" text-anchor="middle" pointer-events="none" x="0" y="5" font-size="10px" fill="#2A2C34" font-family="sans-serif"> Darjeeling</text></g><g class="node" aria-label="graph-node224" transform="translate(-546.0692998185742,-0.07586189088063833)"><circle class="outline" cx="0" cy="0" r="25" fill="#F16667" stroke="#eb2728" stroke-width="2px"/><text class="caption" text-anchor="middle" pointer-events="none" x="0" y="5" font-size="10px" fill="#FFFFFF" font-family="sans-serif"> Sandakp…</text></g><g class="node" aria-label="graph-node221" transform="translate(-183.51472196160938,0.34976268982363684)"><circle class="outline" cx="0" cy="0" r="25" fill="#57C7E3" stroke="#23b3d7" stroke-width="2px"/><text class="caption" text-anchor="middle" pointer-events="none" x="0" y="5" font-size="10px" fill="#2A2C34" font-family="sans-serif"> Rimbik</text></g><g class="node" aria-label="graph-node223" transform="translate(-355.1897555754964,0.11696882089020882)"><circle class="outline" cx="0" cy="0" r="25" fill="#D9C8AE" stroke="#c0a378" stroke-width="2px"/><text class="caption" text-anchor="middle" pointer-events="none" x="0" y="5" font-size="10px" fill="#2A2C34" font-family="sans-serif"> BhikeBh…</text></g></g></svg>