<svg xmlns="http://www.w3.org/2000/svg" width="507.61431884765625" height="71.64402770996094" viewBox="-357.0704650878906 -35.29193115234375 507.61431884765625 71.64402770996094"><title>Neo4j Graph Visualization</title><desc>Created using Neo4j (http://www.neo4j.com/)</desc><g class="layer relationships"><g class="relationship" transform="translate(121.54384613193649 -2.8173925496702337) rotate(537.2808293757049)"><path class="outline" fill="#A5ABB6" stroke="none" d="M 21.40063509461097,12.933012701892217 L 21.90063509461097,12.06698729810778 A 95.4096138811668 95.4096138811668 0 0 0 37.29993064081201,19.21371136333552 L 36.96133256793207,20.154642468699763 A 96.4096138811668 96.4096138811668 0 0 1 21.40063509461097,12.933012701892217 Z M 97.92731956612903,21.595602255815564 L 97.63355345307474,20.63972492539027 A 95.4096138811668 95.4096138811668 0 0 0 113.35329717189512,14.22851399465669 L 111.97771708021205,11.562472094879949 L 119.80332495332136,11.463167430692305 L 115.18740396080588,17.78323652769235 L 113.8118238691228,15.117194627915605 A 96.4096138811668 96.4096138811668 0 0 1 97.92731956612903,21.595602255815564"/><text text-anchor="middle" pointer-events="none" font-size="8px" fill="#000000" x="67.33920609727589" y="28.322673755861047" transform="rotate(180 67.33920609727589 25.322673755861047)" font-family="sans-serif">PublicTransport</text></g><g class="relationship" transform="translate(-20.31658794050672 3.92014716502367) rotate(181.44988171445038)"><path class="outline" fill="#A5ABB6" stroke="none" d="M 25 0.5 L 61.72691530566799 0.5 L 61.72691530566799 -0.5 L 25 -0.5 Z M 81.06285280566799 0.5 L 117.78976811133597 0.5 L 117.78976811133597 3.5 L 124.78976811133597 0 L 117.78976811133597 -3.5 L 117.78976811133597 -0.5 L 81.06285280566799 -0.5 Z"/><text text-anchor="middle" pointer-events="none" font-size="8px" fill="#000000" x="71.39488405566799" y="3" transform="rotate(180 71.39488405566799 0)" font-family="sans-serif">trek</text></g><g class="relationship" transform="translate(-170.058399399626 0.13009020115308587) rotate(180.07509612173004)"><path class="outline" fill="#A5ABB6" stroke="none" d="M 25 0.5 L 65.83813155504542 0.5 L 65.83813155504542 -0.5 L 25 -0.5 Z M 85.17406905504542 0.5 L 126.01220061009084 0.5 L 126.01220061009084 3.5 L 133.01220061009084 0 L 126.01220061009084 -3.5 L 126.01220061009084 -0.5 L 85.17406905504542 -0.5 Z"/><text text-anchor="middle" pointer-events="none" font-size="8px" fill="#000000" x="75.50610030504542" y="3" transform="rotate(180 75.50610030504542 0)" font-family="sans-serif">trek</text></g><g class="relationship" transform="translate(121.54384613193649 -2.8173925496702337) rotate(537.2808293757049)"><path class="outline" fill="#A5ABB6" stroke="none" d="M 25 0.5 L 56.504311017397114 0.5 L 56.504311017397114 -0.5 L 25 -0.5 Z M 78.51602976739711 0.5 L 110.02034078479423 0.5 L 110.02034078479423 3.5 L 117.02034078479423 0 L 110.02034078479423 -3.5 L 110.02034078479423 -0.5 L 78.51602976739711 -0.5 Z"/><text text-anchor="middle" pointer-events="none" font-size="8px" fill="#000000" x="67.51017039239711" y="3" transform="rotate(180 67.51017039239711 0)" font-family="sans-serif">road</text></g><g class="relationship" transform="translate(121.54384613193649 -2.8173925496702337) rotate(537.2808293757049)"><path class="outline" fill="#A5ABB6" stroke="none" d="M 21.40063509461097,-12.933012701892217 L 21.90063509461097,-12.06698729810778 A 95.4096138811668 95.4096138811668 0 0 1 57.76385751999273,-24.111751894320477 L 57.639744403572934,-25.10401997016116 A 96.4096138811668 96.4096138811668 0 0 0 21.40063509461097,-12.933012701892217 Z M 77.03816711427676,-25.562510817859973 L 76.96107184566337,-24.565487087170766 A 95.4096138811668 95.4096138811668 0 0 1 113.35329717189512,-14.22851399465669 L 111.97771708021205,-11.562472094879949 L 119.80332495332136,-11.463167430692305 L 115.18740396080588,-17.78323652769235 L 113.8118238691228,-15.117194627915605 A 96.4096138811668 96.4096138811668 0 0 0 77.03816711427676,-25.562510817859973"/><text text-anchor="middle" pointer-events="none" font-size="8px" fill="#000000" x="67.33920609727586" y="-22.322673755861047" transform="rotate(180 67.33920609727586 -25.322673755861047)" font-family="sans-serif">trek</text></g></g><g class="layer nodes"><g class="node" aria-label="graph-node222" transform="translate(121.54384613193649,-2.8173925496702337)"><circle class="outline" cx="0" cy="0" r="25" fill="#57C7E3" stroke="#23b3d7" stroke-width="2px"/><text class="caption" text-anchor="middle" pointer-events="none" x="0" y="5" font-size="10px" fill="#2A2C34" font-family="sans-serif"> Darjeeling</text></g><g class="node" aria-label="graph-node224" transform="translate(-328.0704642876963,-0.07701231416812959)"><circle class="outline" cx="0" cy="0" r="25" fill="#F16667" stroke="#eb2728" stroke-width="2px"/><text class="caption" text-anchor="middle" pointer-events="none" x="0" y="5" font-size="10px" fill="#FFFFFF" font-family="sans-serif"> Sandakp…</text></g><g class="node" aria-label="graph-node221" transform="translate(-20.31658794050672,3.92014716502367)"><circle class="outline" cx="0" cy="0" r="25" fill="#57C7E3" stroke="#23b3d7" stroke-width="2px"/><text class="caption" text-anchor="middle" pointer-events="none" x="0" y="5" font-size="10px" fill="#2A2C34" font-family="sans-serif"> Rimbik</text></g><g class="node" aria-label="graph-node223" transform="translate(-170.058399399626,0.13009020115308587)"><circle class="outline" cx="0" cy="0" r="25" fill="#D9C8AE" stroke="#c0a378" stroke-width="2px"/><text class="caption" text-anchor="middle" pointer-events="none" x="0" y="5" font-size="10px" fill="#2A2C34" font-family="sans-serif"> BhikeBh…</text></g></g></svg>