<svg xmlns="http://www.w3.org/2000/svg" width="705.180908203125" height="387.2342224121094" viewBox="-332.0825500488281 -191.20216369628906 705.180908203125 387.2342224121094"><title>Neo4j Graph Visualization</title><desc>Created using Neo4j (http://www.neo4j.com/)</desc><g class="layer relationships"><g class="relationship" transform="translate(19.522099160599943 24.14371082040628) rotate(471.7368950906739)"><path class="outline" fill="#A5ABB6" stroke="none" d="M 21.40063509461097,12.933012701892217 L 21.90063509461097,12.06698729810778 A 103.15835878616265 103.15835878616265 0 0 0 48.73346595254036,22.875447184454742 L 48.49357895912232,23.846248003566913 A 104.15835878616265 104.15835878616265 0 0 1 21.40063509461097,12.933012701892217 Z M 93.89672209178201,24.866946714141932 L 93.70070414524346,23.886346405843582 A 103.15835878616265 103.15835878616265 0 0 0 120.99214686922474,14.294643167697226 L 119.61041688804055,11.631783378091939 L 127.43577470850111,11.51441650986831 L 122.83445351080367,17.84512288717094 L 121.45272352961948,15.182263097565654 A 104.15835878616265 104.15835878616265 0 0 1 93.89672209178201,24.866946714141932"/><text text-anchor="middle" pointer-events="none" font-size="8px" fill="#000000" x="71.1500809040439" y="29.361402940103318" transform="rotate(180 71.1500809040439 26.361402940103318)" font-family="sans-serif">ACTED_IN</text></g><g class="relationship" transform="translate(19.522099160599943 24.14371082040628) rotate(471.7368950906739)"><path class="outline" fill="#A5ABB6" stroke="none" d="M 25 0.5 L 48.53188647760591 0.5 L 48.53188647760591 -0.5 L 25 -0.5 Z M 94.09438647760591 0.5 L 117.62627295521182 0.5 L 117.62627295521182 3.5 L 124.62627295521182 0 L 117.62627295521182 -3.5 L 117.62627295521182 -0.5 L 94.09438647760591 -0.5 Z"/><text text-anchor="middle" pointer-events="none" font-size="8px" fill="#000000" x="71.31313647760591" y="3" transform="rotate(180 71.31313647760591 0)" font-family="sans-serif">ACTED_IN</text></g><g class="relationship" transform="translate(19.522099160599943 24.14371082040628) rotate(471.7368950906739)"><path class="outline" fill="#A5ABB6" stroke="none" d="M 21.40063509461097,-12.933012701892217 L 21.90063509461097,-12.06698729810778 A 103.15835878616265 103.15835878616265 0 0 1 48.73346595254035,-22.87544718445473 L 48.49357895912231,-23.8462480035669 A 104.15835878616265 104.15835878616265 0 0 0 21.40063509461097,-12.933012701892217 Z M 93.89672209178201,-24.866946714141932 L 93.70070414524345,-23.886346405843582 A 103.15835878616265 103.15835878616265 0 0 1 120.99214686922474,-14.294643167697226 L 119.61041688804055,-11.631783378091939 L 127.43577470850111,-11.51441650986831 L 122.83445351080367,-17.84512288717094 L 121.45272352961948,-15.182263097565654 A 104.15835878616265 104.15835878616265 0 0 0 93.89672209178201,-24.866946714141932"/><text text-anchor="middle" pointer-events="none" font-size="8px" fill="#000000" x="71.15008090404389" y="-23.361402940103318" transform="rotate(180 71.15008090404389 -26.361402940103318)" font-family="sans-serif">ACTED_IN</text></g><g class="relationship" transform="translate(19.522099160599943 24.14371082040628) rotate(432.784285264963)"><path class="outline" fill="#A5ABB6" stroke="none" d="M 21.40063509461097,12.933012701892217 L 21.90063509461097,12.06698729810778 A 103.12185834035527 103.12185834035527 0 0 0 48.71570355869123,22.86957939417475 L 48.47573638680006,23.840360397498642 A 104.12185834035527 104.12185834035527 0 0 1 21.40063509461097,12.933012701892217 Z M 93.87869264097168,24.8612900671544 L 93.68260385902309,23.880703921222334 A 103.12185834035527 103.12185834035527 0 0 0 120.95613769644147,14.294346701375336 L 119.57443528544836,11.631472606068566 L 127.39979432065611,11.51418675827588 L 122.79840757776562,17.844845495117692 L 121.4167051667725,15.181971399810923 A 104.12185834035527 104.12185834035527 0 0 1 93.87869264097168,24.8612900671544"/><text text-anchor="middle" pointer-events="none" font-size="8px" fill="#000000" x="71.13211474009464" y="29.356509969852624" font-family="sans-serif">ACTED_IN</text></g><g class="relationship" transform="translate(19.522099160599943 24.14371082040628) rotate(432.784285264963)"><path class="outline" fill="#A5ABB6" stroke="none" d="M 25 0.5 L 48.513955890772905 0.5 L 48.513955890772905 -0.5 L 25 -0.5 Z M 94.0764558907729 0.5 L 117.59041178154581 0.5 L 117.59041178154581 3.5 L 124.59041178154581 0 L 117.59041178154581 -3.5 L 117.59041178154581 -0.5 L 94.0764558907729 -0.5 Z"/><text text-anchor="middle" pointer-events="none" font-size="8px" fill="#000000" x="71.2952058907729" y="3" font-family="sans-serif">ACTED_IN</text></g><g class="relationship" transform="translate(19.522099160599943 24.14371082040628) rotate(432.784285264963)"><path class="outline" fill="#A5ABB6" stroke="none" d="M 21.40063509461097,-12.933012701892217 L 21.90063509461097,-12.06698729810778 A 103.12185834035527 103.12185834035527 0 0 1 48.7157035586912,-22.86957939417475 L 48.47573638680003,-23.840360397498642 A 104.12185834035527 104.12185834035527 0 0 0 21.40063509461097,-12.933012701892217 Z M 93.87869264097165,-24.8612900671544 L 93.68260385902306,-23.880703921222334 A 103.12185834035527 103.12185834035527 0 0 1 120.95613769644147,-14.294346701375336 L 119.57443528544836,-11.631472606068566 L 127.39979432065611,-11.51418675827588 L 122.79840757776562,-17.844845495117692 L 121.4167051667725,-15.181971399810923 A 104.12185834035527 104.12185834035527 0 0 0 93.87869264097165,-24.8612900671544"/><text text-anchor="middle" pointer-events="none" font-size="8px" fill="#000000" x="71.13211474009461" y="-23.356509969852624" font-family="sans-serif">ACTED_IN</text></g><g class="relationship" transform="translate(19.522099160599943 24.14371082040628) rotate(348.8361505966677)"><path class="outline" fill="#A5ABB6" stroke="none" d="M 21.40063509461097,12.933012701892217 L 21.90063509461097,12.06698729810778 A 139.9541778741179 139.9541778741179 0 0 0 66.76291211883918,28.545422586242452 L 66.58346187094863,29.529189636174507 A 140.9541778741179 140.9541778741179 0 0 1 21.40063509461097,12.933012701892217 Z M 112.10037093975254,30.359080903873533 L 111.95690128732305,29.36942618689808 A 139.9541778741179 139.9541778741179 0 0 0 157.39005083464758,14.537310641424654 L 155.98575563321594,11.886281598347969 L 163.8098344687318,11.70246001193029 L 159.26244443655645,18.072016032193567 L 157.8581492351248,15.420986989116884 A 140.9541778741179 140.9541778741179 0 0 1 112.10037093975254,30.359080903873533"/><text text-anchor="middle" pointer-events="none" font-size="8px" fill="#000000" x="89.31730574339343" y="34.29395217499312" font-family="sans-serif">ACTED_IN</text></g><g class="relationship" transform="translate(19.522099160599943 24.14371082040628) rotate(348.8361505966677)"><path class="outline" fill="#A5ABB6" stroke="none" d="M 25 0.5 L 66.66962158051876 0.5 L 66.66962158051876 -0.5 L 25 -0.5 Z M 112.23212158051876 0.5 L 153.90174316103753 0.5 L 153.90174316103753 3.5 L 160.90174316103753 0 L 153.90174316103753 -3.5 L 153.90174316103753 -0.5 L 112.23212158051876 -0.5 Z"/><text text-anchor="middle" pointer-events="none" font-size="8px" fill="#000000" x="89.45087158051876" y="3" font-family="sans-serif">ACTED_IN</text></g><g class="relationship" transform="translate(19.522099160599943 24.14371082040628) rotate(348.8361505966677)"><path class="outline" fill="#A5ABB6" stroke="none" d="M 21.40063509461097,-12.933012701892217 L 21.90063509461097,-12.06698729810778 A 139.9541778741179 139.9541778741179 0 0 1 66.76291211883915,-28.545422586242452 L 66.58346187094858,-29.529189636174507 A 140.9541778741179 140.9541778741179 0 0 0 21.40063509461097,-12.933012701892217 Z M 112.10037093975251,-30.359080903873533 L 111.95690128732303,-29.36942618689808 A 139.9541778741179 139.9541778741179 0 0 1 157.39005083464758,-14.537310641424654 L 155.98575563321594,-11.886281598347969 L 163.8098344687318,-11.70246001193029 L 159.26244443655645,-18.072016032193567 L 157.8581492351248,-15.420986989116884 A 140.9541778741179 140.9541778741179 0 0 0 112.10037093975251,-30.359080903873533"/><text text-anchor="middle" pointer-events="none" font-size="8px" fill="#000000" x="89.3173057433934" y="-28.293952174993123" font-family="sans-serif">ACTED_IN</text></g><g class="relationship" transform="translate(214.53744511236846 135.80493303972514) rotate(265.1104559688057)"><path class="outline" fill="#A5ABB6" stroke="none" d="M 25 0.5 L 47.815728340500556 0.5 L 47.815728340500556 -0.5 L 25 -0.5 Z M 93.37822834050056 0.5 L 116.19395668100111 0.5 L 116.19395668100111 3.5 L 123.19395668100111 0 L 116.19395668100111 -3.5 L 116.19395668100111 -0.5 L 93.37822834050056 -0.5 Z"/><text text-anchor="middle" pointer-events="none" font-size="8px" fill="#000000" x="70.59697834050056" y="3" transform="rotate(180 70.59697834050056 0)" font-family="sans-serif">ACTED_IN</text></g><g class="relationship" transform="translate(314.42236039323194 83.40292723102527) rotate(220.25018503742808)"><path class="outline" fill="#A5ABB6" stroke="none" d="M 25 0.5 L 52.32381749797675 0.5 L 52.32381749797675 -0.5 L 25 -0.5 Z M 88.09725499797675 0.5 L 115.4210724959535 0.5 L 115.4210724959535 3.5 L 122.4210724959535 0 L 115.4210724959535 -3.5 L 115.4210724959535 -0.5 L 88.09725499797675 -0.5 Z"/><text text-anchor="middle" pointer-events="none" font-size="8px" fill="#000000" x="70.21053624797675" y="3" transform="rotate(180 70.21053624797675 0)" font-family="sans-serif">WROTE</text></g><g class="relationship" transform="translate(344.0983727081315 -46.92350761967636) rotate(526.1437654402881)"><path class="outline" fill="#A5ABB6" stroke="none" d="M 25 0.5 L 46.94580652423956 0.5 L 46.94580652423956 -0.5 L 25 -0.5 Z M 92.50830652423956 0.5 L 114.45411304847912 0.5 L 114.45411304847912 3.5 L 121.45411304847912 0 L 114.45411304847912 -3.5 L 114.45411304847912 -0.5 L 92.50830652423956 -0.5 Z"/><text text-anchor="middle" pointer-events="none" font-size="8px" fill="#000000" x="69.72705652423956" y="3" transform="rotate(180 69.72705652423956 0)" font-family="sans-serif">ACTED_IN</text></g><g class="relationship" transform="translate(163.20989569081158 -155.3175252748007) rotate(434.90534582346766)"><path class="outline" fill="#A5ABB6" stroke="none" d="M 25 0.5 L 47.35207482715934 0.5 L 47.35207482715934 -0.5 L 25 -0.5 Z M 94.24269982715934 0.5 L 116.59477465431868 0.5 L 116.59477465431868 3.5 L 123.59477465431868 0 L 116.59477465431868 -3.5 L 116.59477465431868 -0.5 L 94.24269982715934 -0.5 Z"/><text text-anchor="middle" pointer-events="none" font-size="8px" fill="#000000" x="70.79738732715934" y="3" font-family="sans-serif">DIRECTED</text></g><g class="relationship" transform="translate(267.1625967273689 -145.04718349329565) rotate(476.1012894008036)"><path class="outline" fill="#A5ABB6" stroke="none" d="M 25 0.5 L 52.7752164840218 0.5 L 52.7752164840218 -0.5 L 25 -0.5 Z M 88.5486539840218 0.5 L 116.3238704680436 0.5 L 116.3238704680436 3.5 L 123.3238704680436 0 L 116.3238704680436 -3.5 L 116.3238704680436 -0.5 L 88.5486539840218 -0.5 Z"/><text text-anchor="middle" pointer-events="none" font-size="8px" fill="#000000" x="70.6619352340218" y="3" transform="rotate(180 70.6619352340218 0)" font-family="sans-serif">WROTE</text></g><g class="relationship" transform="translate(19.522099160599943 24.14371082040628) rotate(266.0158413043984)"><path class="outline" fill="#A5ABB6" stroke="none" d="M 24.018736134675446,6.953439040707552 L 24.277555179777966,5.987513214418485 A 186.18471308116818 186.18471308116818 0 0 0 47.63501491663867,10.668391096840736 L 47.50164902690169,11.659457966156168 A 187.18471308116818 187.18471308116818 0 0 1 24.018736134675446,6.953439040707552 Z M 93.0697419115085,12.194170582362233 L 92.9596686221879,11.200247108960895 A 186.18471308116818 186.18471308116818 0 0 0 116.4205359503415,7.068752546457692 L 115.71229040658874,4.153553025026211 L 123.34070909097376,5.902046197939797 L 117.36486334201187,10.955685241699667 L 116.6566177982591,8.040485720268187 A 187.18471308116818 187.18471308116818 0 0 1 93.0697419115085,12.194170582362233"/><text text-anchor="middle" pointer-events="none" font-size="8px" fill="#000000" x="70.2752291468157" y="15.81875199247446" transform="rotate(180 70.2752291468157 12.81875199247446)" font-family="sans-serif">ACTED_IN</text></g><g class="relationship" transform="translate(19.522099160599943 24.14371082040628) rotate(266.0158413043984)"><path class="outline" fill="#A5ABB6" stroke="none" d="M 24.018736134675446,-6.953439040707552 L 24.277555179777966,-5.987513214418485 A 186.18471308116818 186.18471308116818 0 0 1 47.63501491663864,-10.668391096840736 L 47.50164902690166,-11.659457966156168 A 187.18471308116818 187.18471308116818 0 0 0 24.018736134675446,-6.953439040707552 Z M 93.06974191150854,-12.194170582362233 L 92.95966862218795,-11.200247108960895 A 186.18471308116818 186.18471308116818 0 0 1 116.4205359503415,-7.068752546457692 L 115.71229040658874,-4.153553025026211 L 123.34070909097376,-5.902046197939797 L 117.36486334201187,-10.955685241699667 L 116.6566177982591,-8.040485720268187 A 187.18471308116818 187.18471308116818 0 0 0 93.06974191150854,-12.194170582362233"/><text text-anchor="middle" pointer-events="none" font-size="8px" fill="#000000" x="70.27522914681572" y="-9.81875199247446" transform="rotate(180 70.27522914681572 -12.81875199247446)" font-family="sans-serif">ACTED_IN</text></g><g class="relationship" transform="translate(19.522099160599943 24.14371082040628) rotate(191.9763012553667)"><path class="outline" fill="#A5ABB6" stroke="none" d="M 25 0.5 L 63.44113026342916 0.5 L 63.44113026342916 -0.5 L 25 -0.5 Z M 109.00363026342916 0.5 L 147.44476052685832 0.5 L 147.44476052685832 3.5 L 154.44476052685832 0 L 147.44476052685832 -3.5 L 147.44476052685832 -0.5 L 109.00363026342916 -0.5 Z"/><text text-anchor="middle" pointer-events="none" font-size="8px" fill="#000000" x="86.22238026342916" y="3" transform="rotate(180 86.22238026342916 0)" font-family="sans-serif">ACTED_IN</text></g><g class="relationship" transform="translate(-147.4213691676729 -162.20216262680432) rotate(453.29915458978417)"><path class="outline" fill="#A5ABB6" stroke="none" d="M 25 0.5 L 47.733361654388744 0.5 L 47.733361654388744 -0.5 L 25 -0.5 Z M 94.62398665438874 0.5 L 117.35734830877749 0.5 L 117.35734830877749 3.5 L 124.35734830877749 0 L 117.35734830877749 -3.5 L 117.35734830877749 -0.5 L 94.62398665438874 -0.5 Z"/><text text-anchor="middle" pointer-events="none" font-size="8px" fill="#000000" x="71.17867415438874" y="3" transform="rotate(180 71.17867415438874 0)" font-family="sans-serif">DIRECTED</text></g><g class="relationship" transform="translate(-251.12762264218694 -128.12406775591103) rotate(410.4152827811184)"><path class="outline" fill="#A5ABB6" stroke="none" d="M 25 0.5 L 48.3484504091399 0.5 L 48.3484504091399 -0.5 L 25 -0.5 Z M 93.9109504091399 0.5 L 117.2594008182798 0.5 L 117.2594008182798 3.5 L 124.2594008182798 0 L 117.2594008182798 -3.5 L 117.2594008182798 -0.5 L 93.9109504091399 -0.5 Z"/><text text-anchor="middle" pointer-events="none" font-size="8px" fill="#000000" x="71.1297004091399" y="3" font-family="sans-serif">ACTED_IN</text></g><g class="relationship" transform="translate(-303.08256206088026 -31.017788610608783) rotate(366.94934422106496)"><path class="outline" fill="#A5ABB6" stroke="none" d="M 25 0.5 L 47.795847992359654 0.5 L 47.795847992359654 -0.5 L 25 -0.5 Z M 93.35834799235965 0.5 L 116.15419598471931 0.5 L 116.15419598471931 3.5 L 123.15419598471931 0 L 116.15419598471931 -3.5 L 116.15419598471931 -0.5 L 93.35834799235965 -0.5 Z"/><text text-anchor="middle" pointer-events="none" font-size="8px" fill="#000000" x="70.57709799235965" y="3" font-family="sans-serif">ACTED_IN</text></g><g class="relationship" transform="translate(-273.81390920926043 77.6114961060375) rotate(322.40371189379977)"><path class="outline" fill="#A5ABB6" stroke="none" d="M 25 0.5 L 52.94926069449889 0.5 L 52.94926069449889 -0.5 L 25 -0.5 Z M 88.72269819449889 0.5 L 116.67195888899778 0.5 L 116.67195888899778 3.5 L 123.67195888899778 0 L 116.67195888899778 -3.5 L 116.67195888899778 -0.5 L 88.72269819449889 -0.5 Z"/><text text-anchor="middle" pointer-events="none" font-size="8px" fill="#000000" x="70.83597944449889" y="3" font-family="sans-serif">WROTE</text></g><g class="relationship" transform="translate(-188.98116760797757 132.41484192473658) rotate(282.76478491238663)"><path class="outline" fill="#A5ABB6" stroke="none" d="M 25 0.5 L 53.21052248395959 0.5 L 53.21052248395959 -0.5 L 25 -0.5 Z M 88.9839599839596 0.5 L 117.19448246791919 0.5 L 117.19448246791919 3.5 L 124.19448246791919 0 L 117.19448246791919 -3.5 L 117.19448246791919 -0.5 L 88.9839599839596 -0.5 Z"/><text text-anchor="middle" pointer-events="none" font-size="8px" fill="#000000" x="71.0972412339596" y="3" font-family="sans-serif">WROTE</text></g></g><g class="layer nodes"><g class="node" aria-label="graph-node4" transform="translate(19.522099160599943,24.14371082040628)"><circle class="outline" cx="0" cy="0" r="25" fill="#C990C0" stroke="#b261a5" stroke-width="2px"/><text class="caption" text-anchor="middle" pointer-events="none" x="0" y="0" font-size="10px" fill="#FFFFFF" font-family="sans-serif"> Hugo</text><text class="caption" text-anchor="middle" pointer-events="none" x="0" y="10" font-size="10px" fill="#FFFFFF" font-family="sans-serif"> Weavi…</text></g><g class="node" aria-label="graph-node171" transform="translate(-35.8912409449314,163.13070048784337)"><circle class="outline" cx="0" cy="0" r="25" fill="#F79767" stroke="#f36924" stroke-width="2px"/><text class="caption" text-anchor="middle" pointer-events="none" x="0" y="0" font-size="10px" fill="#FFFFFF" font-family="sans-serif"> Captain</text><text class="caption" text-anchor="middle" pointer-events="none" x="0" y="10" font-size="10px" fill="#FFFFFF" font-family="sans-serif"> America</text></g><g class="node" aria-label="graph-node183" transform="translate(63.796380337786466,167.03205647258278)"><circle class="outline" cx="0" cy="0" r="25" fill="#F79767" stroke="#f36924" stroke-width="2px"/><text class="caption" text-anchor="middle" pointer-events="none" x="0" y="0" font-size="10px" fill="#FFFFFF" font-family="sans-serif"> Captain</text><text class="caption" text-anchor="middle" pointer-events="none" x="0" y="10" font-size="10px" fill="#FFFFFF" font-family="sans-serif"> America</text></g><g class="node" aria-label="graph-node197" transform="translate(201.90611875319087,-11.849726186383855)"><circle class="outline" cx="0" cy="0" r="25" fill="#F79767" stroke="#f36924" stroke-width="2px"/><text class="caption" text-anchor="middle" pointer-events="none" x="0" y="0" font-size="10px" fill="#FFFFFF" font-family="sans-serif"> Captain</text><text class="caption" text-anchor="middle" pointer-events="none" x="0" y="10" font-size="10px" fill="#FFFFFF" font-family="sans-serif"> America</text></g><g class="node" aria-label="graph-node202" transform="translate(214.53744511236846,135.80493303972514)"><circle class="outline" cx="0" cy="0" r="25" fill="#C990C0" stroke="#b261a5" stroke-width="2px"/><text class="caption" text-anchor="middle" pointer-events="none" x="0" y="0" font-size="10px" fill="#FFFFFF" font-family="sans-serif"> Samuel L.</text><text class="caption" text-anchor="middle" pointer-events="none" x="0" y="10" font-size="10px" fill="#FFFFFF" font-family="sans-serif"> Jackson</text></g><g class="node" aria-label="graph-node199" transform="translate(314.42236039323194,83.40292723102527)"><circle class="outline" cx="0" cy="0" r="25" fill="#C990C0" stroke="#b261a5" stroke-width="2px"/><text class="caption" text-anchor="middle" pointer-events="none" x="0" y="0" font-size="10px" fill="#FFFFFF" font-family="sans-serif"> Christofer</text><text class="caption" text-anchor="middle" pointer-events="none" x="0" y="10" font-size="10px" fill="#FFFFFF" font-family="sans-serif"> Markus</text></g><g class="node" aria-label="graph-node201" transform="translate(344.0983727081315,-46.92350761967636)"><circle class="outline" cx="0" cy="0" r="25" fill="#C990C0" stroke="#b261a5" stroke-width="2px"/><text class="caption" text-anchor="middle" pointer-events="none" x="0" y="0" font-size="10px" fill="#FFFFFF" font-family="sans-serif"> Chris</text><text class="caption" text-anchor="middle" pointer-events="none" x="0" y="10" font-size="10px" fill="#FFFFFF" font-family="sans-serif"> Evans</text></g><g class="node" aria-label="graph-node198" transform="translate(163.20989569081158,-155.3175252748007)"><circle class="outline" cx="0" cy="0" r="25" fill="#C990C0" stroke="#b261a5" stroke-width="2px"/><text class="caption" text-anchor="middle" pointer-events="none" x="0" y="0" font-size="10px" fill="#FFFFFF" font-family="sans-serif"> Joe</text><text class="caption" text-anchor="middle" pointer-events="none" x="0" y="10" font-size="10px" fill="#FFFFFF" font-family="sans-serif"> Johnst…</text></g><g class="node" aria-label="graph-node200" transform="translate(267.1625967273689,-145.04718349329565)"><circle class="outline" cx="0" cy="0" r="25" fill="#C990C0" stroke="#b261a5" stroke-width="2px"/><text class="caption" text-anchor="middle" pointer-events="none" x="0" y="0" font-size="10px" fill="#FFFFFF" font-family="sans-serif"> Stephen</text><text class="caption" text-anchor="middle" pointer-events="none" x="0" y="10" font-size="10px" fill="#FFFFFF" font-family="sans-serif"> McFe…</text></g><g class="node" aria-label="graph-node203" transform="translate(9.264388486455976,-123.13354022916212)"><circle class="outline" cx="0" cy="0" r="25" fill="#F79767" stroke="#f36924" stroke-width="2px"/><text class="caption" text-anchor="middle" pointer-events="none" x="0" y="0" font-size="10px" fill="#FFFFFF" font-family="sans-serif"> Captain</text><text class="caption" text-anchor="middle" pointer-events="none" x="0" y="10" font-size="10px" fill="#FFFFFF" font-family="sans-serif"> America</text></g><g class="node" aria-label="graph-node215" transform="translate(-156.01677944937097,-13.092349348406213)"><circle class="outline" cx="0" cy="0" r="25" fill="#F79767" stroke="#f36924" stroke-width="2px"/><text class="caption" text-anchor="middle" pointer-events="none" x="0" y="0" font-size="10px" fill="#FFFFFF" font-family="sans-serif"> Captain</text><text class="caption" text-anchor="middle" pointer-events="none" x="0" y="10" font-size="10px" fill="#FFFFFF" font-family="sans-serif"> America</text></g><g class="node" aria-label="graph-node216" transform="translate(-147.4213691676729,-162.20216262680432)"><circle class="outline" cx="0" cy="0" r="25" fill="#C990C0" stroke="#b261a5" stroke-width="2px"/><text class="caption" text-anchor="middle" pointer-events="none" x="0" y="0" font-size="10px" fill="#FFFFFF" font-family="sans-serif"> Joe</text><text class="caption" text-anchor="middle" pointer-events="none" x="0" y="10" font-size="10px" fill="#FFFFFF" font-family="sans-serif"> Johnst…</text></g><g class="node" aria-label="graph-node219" transform="translate(-251.12762264218694,-128.12406775591103)"><circle class="outline" cx="0" cy="0" r="25" fill="#C990C0" stroke="#b261a5" stroke-width="2px"/><text class="caption" text-anchor="middle" pointer-events="none" x="0" y="0" font-size="10px" fill="#FFFFFF" font-family="sans-serif"> Chris</text><text class="caption" text-anchor="middle" pointer-events="none" x="0" y="10" font-size="10px" fill="#FFFFFF" font-family="sans-serif"> Evans</text></g><g class="node" aria-label="graph-node220" transform="translate(-303.08256206088026,-31.017788610608783)"><circle class="outline" cx="0" cy="0" r="25" fill="#C990C0" stroke="#b261a5" stroke-width="2px"/><text class="caption" text-anchor="middle" pointer-events="none" x="0" y="0" font-size="10px" fill="#FFFFFF" font-family="sans-serif"> Samuel L.</text><text class="caption" text-anchor="middle" pointer-events="none" x="0" y="10" font-size="10px" fill="#FFFFFF" font-family="sans-serif"> Jackson</text></g><g class="node" aria-label="graph-node218" transform="translate(-273.81390920926043,77.6114961060375)"><circle class="outline" cx="0" cy="0" r="25" fill="#C990C0" stroke="#b261a5" stroke-width="2px"/><text class="caption" text-anchor="middle" pointer-events="none" x="0" y="0" font-size="10px" fill="#FFFFFF" font-family="sans-serif"> Stephen</text><text class="caption" text-anchor="middle" pointer-events="none" x="0" y="10" font-size="10px" fill="#FFFFFF" font-family="sans-serif"> McFe…</text></g><g class="node" aria-label="graph-node217" transform="translate(-188.98116760797757,132.41484192473658)"><circle class="outline" cx="0" cy="0" r="25" fill="#C990C0" stroke="#b261a5" stroke-width="2px"/><text class="caption" text-anchor="middle" pointer-events="none" x="0" y="0" font-size="10px" fill="#FFFFFF" font-family="sans-serif"> Christofer</text><text class="caption" text-anchor="middle" pointer-events="none" x="0" y="10" font-size="10px" fill="#FFFFFF" font-family="sans-serif"> Markus</text></g></g></svg>